# xmcd CD database file
#
# Track frame offsets:
#	150
#	17639
#	30287
#	49105
#	67460
#	94556
#	108093
#	124353
#	138580
#	154102
#
# Disc length: 2274 seconds
#
# Revision: 1
# Processed by: cddbd v1.5.2PL0 Copyright (c) Steve Scherf et al.
# Submitted via: CDex 1.50beta10
#
DISCID=8208e00a
DTITLE=Atlanta - Pictures
DYEAR=1984
DGENRE=Country
TTITLE0=Dixie Dreaming
TTITLE1=Wishful Drinkin'
TTITLE2=Pictures
TTITLE3=Sweet Was Out Rose
TTITLE4=Blue Side Of The Grey
TTITLE5=Atlanta Burned Again Last Night
TTITLE6=Sweet Country Music
TTITLE7=(Nothing Left Between Us) But Alabama
TTITLE8=You Are The Wine
TTITLE9=Long Cool Woman In A Black Dress
EXTD=YEAR: 1984
EXTT0=
EXTT1=
EXTT2=
EXTT3=
EXTT4=
EXTT5=
EXTT6=
EXTT7=
EXTT8=
EXTT9=
PLAYORDER=
